<?xml version="1.0" encoding="UTF-8"?>
<svg id="Layer_1" xmlns="http://www.w3.org/2000/svg" version="1.1" viewBox="0 0 512 512">
  <!-- Generator: Adobe Illustrator 29.1.0, SVG Export Plug-In . SVG Version: 2.1.0 Build 142)  -->
  <defs>
    <style>
      .st0 {
        fill: #facc15;
      }
    </style>
  </defs>
  <path class="st0" d="M279.9,1.3c122.5,11.3,219.6,108.4,230.9,230.9-63.7,9.5-128.1-11.7-173.7-57.2-45.5-45.6-66.7-110-57.2-173.7ZM481.1,277.3c-135.8,0-246-110-246.1-245.8,0-10.2.6-20.4,1.9-30.5C110.4,10.1,9.9,110.8,1,237.3c132.7-18.4,255.3,74.2,273.7,207,3.1,22.1,3.1,44.6,0,66.7,126.4-8.8,227.1-109.3,236.3-235.6-9.9,1.3-19.9,1.9-29.8,2ZM175.8,336.2c-45.8-45.7-110.7-66.5-174.5-56,11.5,122.2,108.2,218.9,230.4,230.4,10.5-63.7-10.3-128.7-55.9-174.4h0Z"/>
</svg>