<?xml version="1.0" encoding="UTF-8"?>
<svg id="Layer_1" xmlns="http://www.w3.org/2000/svg" version="1.1" viewBox="0 0 800 800">
  <!-- Generator: Adobe Illustrator 29.1.0, SVG Export Plug-In . SVG Version: 2.1.0 Build 142)  -->
  <defs>
    <style>
      .st0 {
        fill: #facc15;
      }
    </style>
  </defs>
  <path class="st0" d="M0,123.7v552.6h800V123.7H0ZM412.4,230.9h189.7v156.7h-189.7v-156.7ZM412.4,412.4h189.7v156.7h-189.7v-156.7ZM24.7,230.9h148.5v338.1H24.7s0-338.1,0-338.1ZM387.6,651.5H24.7v-57.7h362.9v57.7ZM387.6,569.1h-189.7v-156.7h189.7v156.7ZM387.6,387.6h-189.7v-156.7h189.7v156.7ZM387.6,206.2H24.7v-57.7h362.9v57.7ZM775.3,651.5h-362.9v-57.7h362.9v57.7h0ZM775.3,569.1h-148.5V230.9h148.5v338.1ZM775.3,206.2h-362.9v-57.7h362.9v57.7h0Z"/>
</svg>