<?xml version="1.0" encoding="UTF-8"?>
<svg id="_x32_" xmlns="http://www.w3.org/2000/svg" version="1.1" viewBox="0 0 800 800">
  <!-- Generator: Adobe Illustrator 29.1.0, SVG Export Plug-In . SVG Version: 2.1.0 Build 142)  -->
  <defs>
    <style>
      .st0 {
        fill: #facc15;
      }
    </style>
  </defs>
  <path d="M755.2,506.5c-5.5-22.2-17.3-42.8-33.9-59.4h-.1c0-.2-.1-.2-.1-.2h-.1c-15-15.1-32.6-25.9-52.1-32-12.3-3.9-25.2-5.7-38.6-5.7s-3.6,0-5.4.1c-21.8.8-44,6.7-65.5,17.3-21.2,10.4-41,24.8-59.1,42.9-18.3,18.3-32.5,39.1-41.9,61.1-3.5,7.8-6.3,15.9-8.4,24l-.7,2.6c-2,7.6-3.2,15.3-4,23.1-.1,1.4-.2,3-.3,4.4-.2,3.1-.3,6.1-.3,9.1s.1,6,.3,9c-1.4,27.1-7.4,52.1-17.6,74.5-8.6,18.5-20.3,35.6-34.8,50.6l-2.4,2.3c-4,4-11.1,11-22.4,21.9-8,7.9-14.9,14.7-16.7,16.4-1.3,1.4-3.2,3.5-4.7,6.4-.1.2-.2.4-.3.8-81.9-.7-151.1-11.2-200.7-24.3v-47.5h-19.8v42c-18.3-5.6-33.1-11.5-43.4-16.8-6.6-3.4-11.5-6.6-14.1-9-1.2-1-1.9-1.8-2.2-2.2-.3-4.7-.5-9.4-.5-13.8,0-27.2,6.7-47,17-62.7,15.3-23.3,40.1-37.5,65.8-47.2,12.9-4.9,25.9-8.6,37.8-11.8,12-3.2,22.8-5.8,31.7-9,9-3.2,19.1-7.4,28.7-12.7,10.5,13.9,25.4,24.7,44.1,31.8,19.4,7.4,42.5,11.1,69.2,11.1s46.9-3.4,65.6-10c0-3.5.1-6.9.4-10.4l.3-4.6c.2-2.5.6-4.6.9-6.9-1.7.7-3.3,1.5-5,2.2-16.5,6.3-37.4,9.8-62.1,9.8s-45.6-3.5-62.1-9.8c-15.4-6.1-26.9-14.4-34.7-24.6,3.9-3.1,7.4-6.4,10.4-10.4,4.4-5.7,7.8-13,7.8-21.2v-55.6l-3.1-3.5c-16.5-18.4-38.9-42.7-46.7-86.3l-1.2-6.9-6.6-2.3c-4.2-1.6-7.5-3.1-10.2-5-4.2-3-7.9-6.9-12.3-15.1-4.3-8.2-8.9-20.4-13.9-38-2.2-7.7-3-13.7-3-18.1s1-8.3,2-10.1c1.5-2.8,3.4-4,5.7-5,2-.7,4-.9,4.7-1l10,1.3c9.8,13.8,17.4,31.3,17.4,31.3v-77.1s7.7-1.8,19.6-4.7h238.3c1.8.7,2.8,1.1,2.8,1.1l7.4,62.4s10.2-6.7,19.3-14.1c1.6.2,4.2.8,6.1,2,1.4.9,2.5,2,3.6,3.9,1,1.9,2,5,2,10.1s-.8,10.4-3,18.1c-6.7,23.6-12.7,37.2-18.2,44.8-2.8,3.9-5.3,6.3-8.2,8.3-2.8,1.9-6,3.4-10.1,5l-6.7,2.3-1.2,6.9c-7.7,43.5-30.1,67.9-46.6,86.3l-3.2,3.5v55.6c0,7.9,3.2,15.1,7.4,20.8.3.4.7.7,1,1.1,1.9-6,4.1-12,6.6-17.5,2.7-6.4,5.8-12.6,9.3-18.8v-32c15.9-17.6,38.6-44.8,47.9-88.1,3.3-1.4,6.5-3.1,9.6-5.3,7.7-5.3,14.3-13.1,19.8-23.6,5.6-10.6,10.6-24.1,15.9-42.6,2.8-9.5,4-17.5,4-24.8s-1.8-15.6-4.8-21.6c-4.2-7.8-10.6-12.5-16.3-15.1,2.2-10.8,3.6-21.8,4.6-32.7,1.2-1.8,2.1-3.7,2.1-5.8v-77.1c0-2.6-1.1-5.2-2.9-7-1.2-1.2-2.8-1.9-4.4-2.3-10.1-48.9-31.1-85.7-55.5-89.8-102.8-80.9-168.9,3.6-271.8-14.8-16.4,27.4-22.6,67-23.9,105.9-.4.3-1,.5-1.4,1-1.9,1.9-2.9,4.4-2.9,7v77.1c0,2.5,1,5.2,2.9,6.9,1.5,1.7,3.6,2.4,5.9,2.8,1.4,12.5,2.9,22.4,3.9,28.3-1.9.7-3.7,1.4-5.7,2.6-4.5,2.8-9,7-12.1,13-3.2,5.9-4.9,13.2-4.9,21.6s1.2,15.4,3.9,24.8c7.2,24.7,13.5,40.5,21.8,52.2,4.1,5.8,8.8,10.5,13.9,14,3.2,2.2,6.4,3.9,9.7,5.3,9.3,43.3,32,70.5,47.8,88.1v46.4c0,1.4-.6,3.5-2.9,6.5-3.3,4.5-10.1,9.9-18.4,14.5-8.2,4.6-17.5,8.6-25.8,11.6-9.6,3.4-25.2,6.9-42.6,12-26.1,7.5-57.1,18.4-82.3,40-12.6,10.8-23.6,24.3-31.3,41.2-7.8,16.9-12.2,36.8-12.2,60.3s.2,11,.7,16.9c.4,4.1,2,7.4,3.7,10.1,3.5,5.1,8,8.8,13.9,12.8,10,6.6,24,13.1,41.9,19.5,52.7,18.8,139.4,36,246.9,36.5,1.6.1,3.3.1,5.1.1,7.3,0,14.5-.1,21.6-.2,4.9-.1,9.8-.2,14.5-.4,9.8-.3,19.5-.8,29-1.4,60.8-4,113-13.1,153.2-24,26.9-7.3,48.4-15.2,63.8-23.3,7.8-4,14.1-7.9,19.1-12.2,2.5-2.2,4.7-4.5,6.5-7.3,1.9-2.8,3.4-6.1,3.7-10.1,0-.9,0-1.8.1-2.7-5.1,2.9-10.3,5.6-15.5,8-8.8,4-17.6,7.4-26.1,10-9.1,2.8-19.6,4.6-30.2,5.7-2.2.8-4.3,1.5-6.7,2.3v-1.6c-4.3.3-8.6.5-12.9.5s-4.5,0-6.7-.2c0,0-.2,0-.3,0v7.1c-11.6,3.1-24.1,6.2-37.8,8.9-24.8,5.1-52.9,9.4-83.8,12.4,12.8-11.4,29.2-21.6,47.7-29.6,22.8-10,47.6-16.3,73.6-18.7h.3c2.3.1,4.6.2,6.9.2,4.3,0,8.6-.2,12.9-.5,11.1-.9,22-2.9,31.2-5.6,8-2.4,16-5.5,23.7-9,8.3-3.7,16.3-8.2,24.1-13.2,12-7.6,23.3-16.6,33.8-27.1,16-16,29.2-33.5,39.2-52.1,7.5-14,13.2-28.4,16.8-43,2.8-11.7,4.3-23.4,4.3-34.8,0-10.8-1.3-21.3-3.8-31.5ZM189.3,144.8h323.2v57.3H189.3v-57.3ZM372.2,775.6l1.4-1.4,1.4,1.4h-2.9ZM414.1,773.9c-8.3.5-16.8,1-25.5,1.3l-7.9-7.9c.3-.3.6-.6.9-.9,4.3-4.2,7.7-7.5,10.8-10.6l26.1,13.5c-1.3,1.3-2.8,2.9-4.4,4.5ZM426.3,761.5l-.6.5-25.9-13.5c1.7-1.5,3.1-3.1,4.3-4.2l2.3-2.4h.1c4.3-4.5,8.3-9,12.1-13.8l21.5,21.5c-5,3.9-9.7,7.7-13.9,11.9ZM735.6,568.2c-3.1,12.8-8.2,25.7-14.9,38.2-9.1,16.9-21.2,32.8-35.9,47.6-7,7-14.7,13.4-22.6,19.1-7.2,5.3-14.5,9.8-22.3,13.8-9.3,4.7-18.8,8.6-28.5,11.6-10.5,3.2-25.2,5.3-38.3,5.3s-4.6,0-6.8-.1h-.2c0-.1-.7-.1-.7-.1h-.8c0,.1-.2.1-.2.1-28.2,2.5-55.1,9.4-80,20.3-13.1,5.7-25.1,12.4-36,20.1l-23.7-23.7c8-10.8,15-22.2,20.6-34.5,11.5-24.9,18-52.4,19.4-82v-1.3c-.2-2.9-.2-5.6-.2-8.5s.1-7.8.4-11.7c.4-5.1,1.2-10.3,2.3-15.3,1.9-8.6,4.5-17.2,7.9-25.7,8.5-20.7,21.7-40.5,39.1-58s34.7-29.8,53.8-39.1c19.4-9.5,38.8-14.5,57.6-15.3h.7c1.3,0,2.6-.1,4-.1,11.4,0,22.4,1.7,32.7,5,16.5,5.2,31.3,14.1,44.2,27.1h.1c0,.1.1.2.1.2,14.2,14.2,24.1,31.6,28.8,50.1,2.1,8.6,3.2,17.5,3.2,26.8,0,9.8-1.2,19.8-3.7,30.2Z"/>
  <path d="M487.6,680.8c-4.5-4.5-8.6-9.5-12.2-14.8l-2.2-3.2-1.1,3.7c-2.7,9-6.1,17.8-9.9,26.2-4.1,9-9.1,17.7-14.6,26l2.5,2.6c8.6-5.3,17.9-10.2,27.6-14.4,8.3-3.6,16.9-6.8,25.9-9.5l3.8-1.1-3.3-2.2c-6-3.9-11.5-8.4-16.4-13.3Z"/>
  <path class="st0" d="M694,479.2v-.3l-2.3-2.3c-11.9-11.9-26.1-20.2-41.9-24-7.3-1.9-14.8-2.8-22.4-2.8s-16.9,1.1-25.5,3.2h-.1c-11,2.6-21.9,6.9-32.7,12.8-14.5,7.8-28.4,18.3-41.1,31-15.5,15.6-27.4,33.6-34.7,52.8-1.3,3.3-2.4,6.7-3.4,10.1-1.3,4.4-2.3,8.9-3,13.3-1.1,6.3-1.7,12.4-1.7,18.6,0,10.7,1.7,21.2,5,31,4.3,13.1,11.5,24.7,21,34.4,9.7,9.6,21.4,16.8,34.4,21.2l.7.2c9.6,3.1,19.8,4.6,30.3,4.6s6.8-.1,10.2-.4c16.7-1.5,33.4-6.9,48.9-15.4,7.3-4,14.2-8.6,20.9-13.8,5.1-4.1,10-8.4,14.8-13.1,14.3-14.2,25.7-30,33.8-46.5,7.9-16.3,12.4-32.8,13-49,.1-1.2.1-2.5.1-3.9,0-9.5-1.3-18.6-4.1-27.3-4-12.7-11-24.2-20.4-34.3ZM699.2,518.2c1.6,4.7,2.3,9.9,2.9,15.1l-13.7,13.7-30.3-30.3,25.4-25.6c7.3,8.3,12.6,17.2,15.6,27.1ZM549.7,549.9l28.8-28.7,30.3,30.3-27,27-1.8,1.8-30.3-30.3ZM572.9,587.5l-9.4,9.4-17.7,17.6-30.3-30.3,2-2,19.6-19.7,5.4-5.4,10,10,20.4,20.4ZM585.7,513.9l27.7-27.7,30.4,30.4-27.7,27.5-30.4-30.3ZM591.6,583.2l24.5-24.6,30.3,30.4-19.2,19.2-9.6,9.6-30.3-30.3,4.3-4.3ZM623.2,551.4l27.7-27.7,30.3,30.4-27.5,27.5-30.4-30.3ZM633.7,465.9c4.2.3,8.3.8,12.2,1.8,11.2,2.9,21.3,8.3,30.4,16.3l-25.4,25.3-30.3-30.3,13.1-13.1ZM619.2,466.1l-5.8,5.7-4.2-4.2c3.4-.7,6.7-1.2,10-1.5ZM576.6,479.5c7-3.7,14.1-6.5,21.2-8.8l8.4,8.4-27.7,27.7-17.3-17.4c5.1-3.6,10.1-6.9,15.4-9.8ZM539.2,507.8c4.5-4.4,9.1-8.5,13.8-12.2l18.3,18.3-28.8,28.7-17.9-17.9c4.4-5.8,9.1-11.6,14.5-17ZM505,563.9c1-3.2,2.1-6.4,3.3-9.5,2.8-7.2,6.3-14.1,10.5-20.9l16.5,16.4-9.5,9.4-17.6,17.6-4.8-4.9c.5-2.8.9-5.4,1.7-8.1ZM505.1,617.5c-2.1-6.2-3.1-12.8-3.5-19.5l6.6-6.7,30.3,30.4-19.7,19.8c-6.1-7.1-10.7-15-13.7-24ZM568.9,666.6c-6.4-.7-12.4-1.6-18.3-3.5-9.4-3.1-17.5-7.9-24.7-14.2l19.8-19.9,30.3,30.4-7.2,7.3ZM583,666.8l.3-.3.3.3h-.7ZM583.3,652l-30.3-30.3,20.4-20.5,6.6-6.6,30.3,30.4-.2.2-26.8,26.8ZM630,652.2c-10.9,6.2-22.3,10.5-33.6,12.8l-5.8-5.7,27.1-27.1,17.2,17.2c-1.7,1-3.2,2-4.8,2.9ZM660.4,629c-3.3,3.3-6.8,6.5-10.4,9.3-2.2,2-4.4,3.6-6.6,5.3l-18.5-18.5,9.5-9.5,19.3-19.4,18.9,19.1c-3.7,4.7-7.8,9.4-12.2,13.8ZM691.1,586.7c-3.3,6.9-7.5,13.8-12.2,20.4l-18.1-18.1,27.7-27.7,9.1,9.1c-1.8,5.4-3.8,10.8-6.5,16.2ZM700.6,559l-4.9-4.8,6.5-6.6c-.3,3.7-.9,7.6-1.6,11.5Z"/>
</svg>